<?xml version="1.0" encoding="utf-8"?>
<!DOCTYPE svg PUBLIC "-//W3C//DTD SVG 1.0//EN" "http://www.w3.org/TR/2001/REC-SVG-20010904/DTD/svg10.dtd">
<svg version="1.0" xmlns="http://www.w3.org/2000/svg" width="460px" height="220px" viewBox="0 0 460 220" preserveAspectRatio="xMidYMid meet">
 <g fill="#000000">
  <path d="M245.75 213.95 c-13.95 -1.90 -18.60 -9.20 -16 -25.25 0.40 -2.45 1.20 -6.05 1.80 -7.95 2.15 -7 7.15 -16 11.30 -20.30 l1.70 -1.80 -1.90 -0.35 c-1.05 -0.15 -3.15 -0.50 -4.65 -0.75 -1.50 -0.25 -3.55 -0.75 -4.55 -1.20 -2.20 -0.90 -5.80 -4.05 -6.25 -5.45 -0.30 -1 -0.30 -1 -1.35 0 -2.40 2.15 -4.45 2.80 -8.85 2.85 -4.80 0 -7.65 -1.05 -10.25 -3.75 l-1.40 -1.50 -2 3 c-2.15 3.35 -4.40 5.25 -7.20 6.30 -2.25 0.80 -6.05 0.90 -8.60 0.25 -1 -0.25 -3.10 -0.75 -4.75 -1.05 -3.20 -0.65 -5.95 -2.70 -7.90 -5.90 -0.60 -1.05 -1.15 -1.90 -1.20 -2 -0.05 -0.10 -1 0.40 -2.05 1.10 -5 3.30 -15.45 2.80 -19.60 -0.95 l-1.85 -1.70 -1.15 2.25 c-1.60 2.95 -4.50 5.50 -7.15 6.25 -3.65 0.95 -9.25 0.35 -13.10 -1.45 -1.85 -0.85 -4 -2 -4.75 -2.55 l-1.40 -1 -1.20 1.25 c-3.20 3.45 -9.45 5.05 -16.50 4.25 -8 -0.90 -11.15 -3.60 -13.60 -11.70 -1.50 -4.95 -2.20 -9 -2.65 -15.50 -0.20 -2.70 -0.50 -4.70 -0.70 -4.50 -0.20 0.20 -0.70 1.85 -1.20 3.65 -1.95 7.45 -6.65 14.95 -12.20 19.60 -9.05 7.55 -27.20 9.75 -39.55 4.70 -15.45 -6.25 -24.35 -24.85 -22.55 -47.10 0.65 -7.60 1.25 -10.85 3.10 -16.70 2.05 -6.30 5.05 -12.50 8 -16.35 1.30 -1.75 2.95 -4.15 3.65 -5.35 1.90 -3.25 4.90 -6.05 8.15 -7.65 2.35 -1.15 3.65 -1.40 7.65 -1.55 4.15 -0.20 5.50 -0.05 9.05 1.05 2.30 0.75 6.20 1.55 8.65 1.90 11.15 1.50 17.65 7.70 23.70 22.60 0.75 1.90 2.35 8.05 2.80 10.75 0.55 3.50 1.10 2.40 1.45 -3 0.75 -11.95 2.05 -21.40 4.20 -30.65 1.45 -6 4 -9.80 7.10 -10.45 2.85 -0.55 9.95 -0.35 11.65 0.40 2.55 1.05 5.05 4.35 6.40 8.45 1.15 3.50 1.20 4.05 1.15 19.10 0 16.80 -0.60 22.75 -3.20 34.25 -1.65 7.15 -6.20 18.75 -8.35 21.10 -0.65 0.75 -0.70 1.25 -0.10 4.15 0.35 1.80 1.05 4 1.60 4.85 l0.95 1.60 2.15 -2.35 c1.55 -1.70 2.50 -2.35 3.50 -2.35 1.10 0 1.30 -0.15 1 -0.85 -0.70 -1.75 -0.90 -12.15 -0.30 -16 1.25 -7.95 4.45 -18.60 6.90 -23.10 2.15 -3.95 5.20 -7.55 7.50 -8.90 2.10 -1.20 2.45 -1.25 8.15 -1.05 l5.95 0.20 0.30 -4.20 c0.20 -2.30 0.25 -8.80 0.15 -14.50 -0.20 -9.10 -0.35 -10.65 -1.25 -12.65 -0.55 -1.30 -1.30 -2.50 -1.60 -2.65 -0.30 -0.20 -0.55 -1.20 -0.55 -2.25 0 -1.90 0.05 -1.90 2.90 -2.75 1.65 -0.50 5.45 -1 8.95 -1.15 7.15 -0.35 10.15 0.25 11.45 2.25 0.90 1.35 0.85 3.90 -0.30 18.85 -0.85 11.35 -1.45 29.05 -1.45 42.75 0 13.65 0.40 19.65 1.45 22.25 l0.55 1.50 1.45 -1.60 c1.90 -2.10 2.40 -4.05 3.25 -12.40 2.05 -20 4.40 -28.30 9.80 -34.45 3.30 -3.75 6.05 -4.80 12.45 -4.80 4.75 0 5.55 0.15 8.30 1.45 1.65 0.80 4.30 1.80 5.80 2.25 2.10 0.60 3.25 1.35 4.80 3 3.15 3.40 3.70 5.15 4 12.20 l0.20 6.10 1.60 1.10 c0.85 0.55 1.85 1.40 2.20 1.80 0.75 0.95 0.80 6.50 0.05 8.40 -1.05 2.85 -1.50 9.10 -0.95 13.25 0.90 6.50 1.30 6.80 3.20 2.75 1 -2.10 1.30 -3.55 1.30 -6.15 0 -6.20 1.45 -20.85 2.45 -24.90 2 -8.10 3.95 -12.35 7.65 -16.55 3.85 -4.35 10.85 -5.50 17 -2.80 1.70 0.80 4.65 1.80 6.50 2.30 5.65 1.50 9.45 4.55 10.85 8.75 0.30 0.95 0.55 4.60 0.55 8.10 0 5.80 0.10 6.45 0.90 6.45 0.45 0 1.60 0.45 2.50 1 1.50 0.95 1.60 1.15 1.60 4 0 2 -0.35 3.70 -0.95 4.90 -0.75 1.50 -1.05 3.80 -1.50 11.75 -0.30 5.45 -0.40 10.75 -0.25 11.85 0.30 1.70 0.55 2 1.90 2.30 3.85 0.80 5.80 2.95 5.80 6.45 0 3.60 -2.65 6.25 -6.25 6.25 l-1.25 0 0 12.90 c-0.05 23.90 -1.20 31.35 -5.90 37.50 -2.15 2.80 -4.65 3.75 -10.35 3.90 -2.75 0.05 -6.55 -0.10 -8.50 -0.35z m1.35 -15.30 c3.35 -3.60 4.90 -11.10 4.90 -23.65 l-0.05 -6.25 -1.70 2.70 c-4.05 6.35 -7.50 17.35 -7.15 22.75 0.15 2.90 1.35 5.80 2.30 5.80 0.25 0 1 -0.60 1.70 -1.35z m-55.20 -55.45 c3.10 -2.15 5.10 -10.35 6.35 -25.45 0.15 -2.45 0.70 -4.85 1.35 -6.15 1.50 -3.20 0.60 -7.15 -2 -8.55 -2.40 -1.25 -6.30 4.10 -8.20 11.20 -2.10 7.75 -2.15 22.60 -0.15 27.65 0.95 2.35 1.10 2.40 2.65 1.30z m-53.75 -2.85 c2.60 -5.55 4.45 -12.95 6.10 -24.35 1.05 -7.45 1 -9.60 -0.30 -10.40 -0.90 -0.55 -1.20 -0.55 -2.05 0.25 -2.25 2.05 -4.70 8.35 -6.15 15.95 -1.10 5.70 -1.30 17.75 -0.30 20.05 0.35 0.90 0.85 1.55 1.05 1.40 0.20 -0.15 0.95 -1.45 1.65 -2.90z m106.25 -0.20 c3.25 -4.65 4.90 -10.15 5.65 -18.80 0.25 -3.40 0.90 -7.20 1.50 -8.90 0.75 -2.15 0.95 -3.50 0.65 -5.20 -0.30 -2.25 -1.95 -5.25 -3.05 -5.60 -1.75 -0.60 -6.15 5.60 -7.55 10.75 -0.35 1.15 -0.90 3.05 -1.20 4.25 -0.45 1.35 -0.65 5.45 -0.65 11.60 0 8 0.15 9.85 0.90 11.85 0.80 2.05 1.05 2.35 1.85 1.90 0.50 -0.30 1.35 -1.10 1.90 -1.85z m-185.60 -1.90 c4.15 -2.05 7.65 -6.80 9.95 -13.50 0.85 -2.50 2.25 -12.40 2.25 -15.80 l0 -1.80 -1.90 1.80 c-1.10 1.05 -3.10 2.25 -4.65 2.75 -3.55 1.15 -12.70 1.65 -16.60 0.80 -3.90 -0.80 -10.15 -4 -12.60 -6.45 -1.10 -1.10 -2.20 -2 -2.45 -2.05 -0.25 0 -0.30 3.60 -0.15 8.65 0.30 8.95 0.90 11.80 3.30 16.90 4.15 8.80 14.60 12.75 22.85 8.70z m1.75 -39.75 c1.25 -0.65 2.50 -1.90 3.50 -3.50 1.15 -1.90 1.85 -2.50 2.95 -2.60 l1.45 -0.15 -1 -2.75 c-3.50 -10.05 -10.20 -16.80 -15.65 -15.80 -2.25 0.45 -4.55 2.35 -5.90 5 -1.65 3.15 -1.55 9.20 0.20 12.60 1.60 3.05 4.20 5.45 7.60 7 3.20 1.45 4.35 1.45 6.85 0.20z"/>
  <path d="M326.75 158 c-0.80 -0.25 -2.85 -0.70 -4.50 -1 -2.55 -0.55 -3.35 -1 -5.45 -3.10 l-2.50 -2.45 -2 2 c-2.70 2.65 -5.05 3.55 -9.15 3.55 -4.55 0 -6.85 -0.70 -9.20 -2.85 -4.95 -4.45 -7.90 -13.60 -8 -24.90 -0.05 -4.75 -0.10 -5.20 -0.55 -3.25 -2.55 12.35 -4.10 15 -8.80 15 -5.40 0 -6.40 -2.45 -4.50 -10.95 1.05 -4.95 1.15 -6.35 1.15 -21.85 0 -13.65 0.15 -16.70 0.70 -17.40 1.35 -1.65 4.75 -2.95 8.15 -3.20 5.80 -0.40 7.40 1 7.40 6.65 0 2.95 0.35 3.20 4.50 3.25 3.30 0 8.85 1.30 10.80 2.50 2.85 1.80 3.35 6.25 1.35 11.65 -2.70 7.35 -4.10 23.35 -2.45 28.60 l0.60 2 1.35 -2.55 c2.70 -5.25 3.40 -8.50 4.60 -20.45 1.25 -12.65 2.50 -18.20 5.55 -24.55 4.10 -8.70 10.35 -12.15 19.40 -10.70 1.85 0.30 4.45 1.05 5.75 1.70 1.25 0.65 3.55 1.55 5.10 2 6 1.70 8.95 7 8.95 16.10 l0 5.10 1.75 1.30 c3.35 2.55 4 5.55 2.25 10.20 -1.60 4.20 -1.20 18.60 0.50 18.60 0.75 0 3.05 -5.65 4.05 -9.85 0.85 -3.80 1.05 -6.55 1.25 -19.65 0.15 -8.40 0.35 -15.75 0.45 -16.30 0.15 -0.60 0.90 -1.35 1.75 -1.70 2.85 -1.20 13.60 0.20 15.80 2 0.45 0.45 0.55 2.15 0.35 7.35 -0.25 5.10 -0.15 6.70 0.25 6.45 0.35 -0.20 0.60 -0.65 0.60 -1 0 -0.35 0.75 -1.45 1.65 -2.50 1.80 -2.10 3.85 -2.75 8.35 -2.80 3.75 0 6.20 0.75 8.25 2.60 l1.75 1.50 0 4.60 0 4.55 2.45 -6 c3.70 -9.20 4.40 -10.65 5.50 -11.20 0.55 -0.30 3.10 -0.55 5.65 -0.55 3.85 0 5.10 0.20 7.25 1.20 6.60 3.10 9.25 8.70 6.55 13.95 -1.70 3.35 -2.40 8.35 -2.40 17.15 0 6.10 0.20 8.55 0.75 9.90 0.40 1 0.85 1.80 1 1.80 0.15 0 0.80 -0.85 1.50 -1.85 1.30 -2.05 3.05 -7.10 3.60 -10.35 0.45 -2.95 1.90 -6.15 3.10 -6.75 1.55 -0.85 6.35 -0.70 7.25 0.20 2.85 2.90 0.70 16.10 -4.05 24.75 -4 7.40 -7.65 10 -13.90 10 -9.70 0 -14.95 -5.05 -17.10 -16.50 -0.70 -3.75 -0.95 -4.35 -1.20 -3.20 -0.20 0.80 -0.70 2.70 -1.10 4.25 -0.45 1.50 -0.95 4 -1.15 5.50 -0.20 1.50 -0.55 3.20 -0.75 3.85 -0.65 1.75 -3.35 2.60 -8.30 2.60 -6.55 -0.05 -9.65 -1.80 -10.95 -6.25 -0.35 -1.25 -0.45 -0.75 -0.70 2.75 -0.35 4.75 -0.95 6.25 -2.60 6.65 -4.95 1.20 -11.60 0.70 -15.75 -1.15 -1.70 -0.75 -2.25 -1.30 -2.45 -2.50 -0.20 -0.80 -0.40 -1.50 -0.45 -1.50 -0.05 0 -1.15 0.55 -2.40 1.25 -4.95 2.80 -12.15 2.05 -16.40 -1.70 l-2.25 -1.95 -1.65 2.60 c-2.05 3.15 -4.95 5.70 -7.45 6.60 -2.05 0.75 -6.50 0.85 -8.85 0.20z m4.65 -14.80 c2.60 -1.80 4.60 -8.20 5.60 -18.10 1.15 -10.75 1.40 -12.65 2.20 -13.85 1.45 -2.20 0.55 -6.30 -1.70 -7.90 -4.75 -3.30 -10.55 11.65 -10.50 27 0.05 5.40 1.80 13.65 2.90 13.65 0.20 0 0.90 -0.35 1.50 -0.80z"/>
 </g>
 <g fill="#ffffff">
  <path d="M0 110 l0 -110 230 0 230 0 0 110 0 110 -230 0 -230 0 0 -110z m259.85 101.60 c7.05 -3.60 9.40 -14.35 9.05 -41.25 l-0.15 -11.85 1.40 0 c2.30 0 4.70 -1.30 5.60 -3.05 0.80 -1.45 0.80 -1.75 0.05 -3.25 -0.80 -1.75 -2.50 -2.85 -5.15 -3.40 -1.50 -0.35 -1.60 -0.55 -1.90 -2.95 -0.20 -1.45 -0.05 -7.45 0.25 -13.35 0.50 -8.75 0.75 -11.05 1.55 -12.60 1.15 -2.25 1.25 -4.55 0.20 -5.40 -0.40 -0.35 -1.60 -0.90 -2.60 -1.25 l-1.90 -0.65 0.20 -6 c0.10 -3.85 -0.05 -6.70 -0.45 -7.90 -1.40 -4.40 -5.15 -7.45 -10.90 -9 -1.85 -0.50 -4.80 -1.50 -6.50 -2.30 -3.90 -1.70 -6.55 -1.75 -9.85 -0.20 -5.35 2.45 -9.15 8.75 -11.80 19.55 -1 4.05 -2.45 18.70 -2.45 24.80 0 6.65 -4 12.25 -6.20 8.85 -1.85 -2.90 -2.20 -15.35 -0.50 -20.85 1.35 -4.40 0.95 -5.90 -2.10 -7.95 l-1.60 -1.10 -0.20 -6.10 c-0.30 -7.05 -0.85 -8.80 -4 -12.20 -1.55 -1.65 -2.70 -2.40 -4.80 -3 -1.50 -0.45 -4.15 -1.45 -5.80 -2.25 -4.05 -1.95 -9.25 -2.05 -13.05 -0.25 -4.95 2.30 -9.10 8.70 -11.45 17.80 -1.30 5.05 -1.90 9 -3.05 20.25 -0.40 3.85 -0.95 7.90 -1.25 9 -0.75 2.50 -3.55 5.40 -5.10 5.15 -2.75 -0.40 -3.35 -4.95 -3.35 -25.40 0 -19.10 0.60 -34.30 2.25 -54.80 0.40 -5 -0.25 -6.25 -3.60 -7.20 -2.80 -0.80 -10.35 -0.40 -14.20 0.75 -1.50 0.50 -2.80 0.90 -2.90 1 -0.10 0.05 0.40 0.95 1.10 2 0.70 1 1.45 2.65 1.65 3.70 0.45 2 0.55 32.80 0.15 33.25 -0.15 0.15 -1.50 -0.05 -3 -0.45 -4.40 -1.15 -8.75 -1 -11.25 0.45 -3.75 2.20 -7.65 8.20 -10.15 15.60 -4.20 12.30 -5.40 21.20 -3.90 28.95 0.40 1.95 0.60 3.65 0.45 3.90 -0.10 0.20 -0.80 0.35 -1.50 0.35 -0.85 0 -1.95 0.75 -3.60 2.55 -2.65 2.85 -4.05 3.10 -5.65 0.95 -1.85 -2.50 -3.20 -11.45 -1.85 -12.30 1.60 -1 6.80 -14.05 8.45 -21.20 2.55 -11.15 3.15 -17.55 3.20 -32.75 0.05 -13.45 0 -14.15 -1.15 -17.60 -1.35 -4.10 -3.85 -7.40 -6.40 -8.45 -1.70 -0.75 -5.95 -0.90 -8.65 -0.40 -3.10 0.65 -5.65 4.45 -7.10 10.45 -1.65 7.05 -2.75 13.75 -3.35 20.75 -0.30 3.45 -0.80 8.70 -1.05 11.70 -1 11.20 -0.50 30.80 1.05 41.05 0.75 5.05 2.80 11.35 4.45 13.90 4.65 7 18.95 7.40 24.85 0.70 0.85 -0.95 1.65 -2.05 1.75 -2.45 0.15 -0.45 0.70 -0.15 1.60 0.95 1.80 2.10 8.80 5.60 12.05 5.95 5.30 0.65 9.30 -1.75 12.25 -7.40 0.90 -1.75 1.70 -3.25 1.80 -3.35 0.10 -0.10 1.35 1.05 2.80 2.60 3.05 3.20 5.20 4 10.45 4 3.85 0 7.10 -1.30 9.60 -3.85 l1.55 -1.55 1.40 2.80 c2.10 4.15 5.05 6.70 8.70 7.45 1.65 0.30 3.90 0.80 5 1.10 5.20 1.25 9.95 -1.75 13.95 -8.85 0.80 -1.35 1.45 -2.55 1.50 -2.65 0.25 -0.35 1.75 0.60 1.75 1.15 0 0.35 0.90 1.45 2.05 2.50 5.30 4.80 12.05 4.60 16.90 -0.45 l1.70 -1.75 0.95 1.85 c2.05 4 7.45 7.60 11.45 7.60 0.75 0 2 0.25 2.80 0.55 2.50 0.95 5.35 0.15 8.10 -2.35 1.60 -1.45 2.60 -2.05 2.85 -1.65 0.20 0.35 -0.65 1.40 -2.10 2.60 -11.05 9.20 -18.25 22.30 -20.20 36.70 -1.40 10.10 2.10 16.65 10.25 19.30 6.05 2 15.10 2.20 18.60 0.45z m75.55 -55.80 c2.15 -1.15 5.45 -4.65 7.10 -7.60 1.85 -3.20 2.45 -3.65 3.15 -2.40 1.25 2.30 4.90 5.20 7.55 5.95 4.30 1.25 7.85 0.25 11.40 -3.10 l1.85 -1.80 0.80 2.90 c0.75 2.55 1.05 2.95 2.95 3.75 2.25 1 7.65 2.05 9.15 1.75 0.50 -0.10 1.75 -0.35 2.80 -0.50 1.60 -0.25 2.05 -0.60 2.65 -2 0.40 -0.95 0.70 -3.20 0.70 -5 0 -3.55 0.65 -8.90 1.60 -13 0.60 -2.40 0.60 -2.45 0.95 -1 0.20 0.85 0.35 3.30 0.40 5.50 0.10 6.25 1.70 9.65 5.20 11.30 2.55 1.15 7.15 1.25 9.60 0.20 1.95 -0.80 2.45 -1.75 2.95 -5.70 0.20 -1.50 0.65 -3.85 1.05 -5.25 0.35 -1.40 1.05 -3.90 1.50 -5.55 1.10 -4.10 1.90 -6.25 2.30 -6.25 0.20 0 0.50 1.75 0.70 3.90 0.55 5.95 1.70 11.05 3.30 14.45 3.50 7.30 11.40 10.60 17.85 7.35 4.35 -2.15 8.25 -8.05 11.05 -16.55 3.35 -10.35 2.20 -16.10 -2.90 -14.35 -1.50 0.50 -3.30 3.85 -3.70 6.95 -0.70 4.95 -3.45 11.25 -5.35 12.25 -1.90 1 -2.85 0.60 -3.70 -1.65 -0.65 -1.70 -0.80 -4.05 -0.80 -11.60 0 -10.25 0.65 -15.10 2.40 -18.60 1.45 -2.85 1.05 -4.75 -1.75 -7.55 -3.05 -3.05 -6.60 -4.60 -10.55 -4.60 -1.75 0 -3.60 0.25 -4.15 0.55 -1.10 0.55 -2.45 3.35 -5.80 11.95 -1.20 3.15 -2.65 6.95 -3.25 8.40 -0.55 1.40 -1.20 2.60 -1.45 2.60 -0.25 0 -0.45 -3.35 -0.45 -7.45 l0 -7.45 -1.75 -1.55 c-2.20 -1.95 -5.20 -2.75 -8.60 -2.30 -3.60 0.45 -5.10 1.85 -7.65 7.10 -1.55 3.25 -2.20 4.15 -2.55 3.60 -0.25 -0.40 -0.45 -4.55 -0.40 -9.30 0 -4.75 -0.10 -8.85 -0.25 -9.10 -0.45 -0.65 -5 -1.95 -8.45 -2.35 -3.35 -0.40 -5.75 0.40 -6.10 2 -0.10 0.55 -0.30 7.90 -0.45 16.30 -0.25 16.85 -0.90 21.45 -3.75 26.95 -1.60 3.20 -2.65 4.05 -3.90 3.25 -1.60 -1 -2.05 -3.70 -2.10 -11.80 -0.05 -6.75 0.10 -8.25 1 -10.60 0.95 -2.55 0.95 -2.85 0.25 -4.25 -0.45 -0.80 -1.60 -2.10 -2.55 -2.85 l-1.75 -1.30 0 -5.10 c0 -9.10 -2.95 -14.40 -8.95 -16.10 -1.55 -0.45 -3.85 -1.35 -5.15 -2 -4.55 -2.30 -10.10 -2.40 -14.30 -0.25 -5.40 2.75 -10.15 11.90 -12.05 23.05 -0.30 1.80 -0.90 6.65 -1.30 10.75 -1.20 12.20 -1.95 15.40 -4.85 20.85 -3.45 6.55 -5.40 3.05 -5.40 -9.70 0 -8.30 1.20 -16.50 3.20 -21.90 1.60 -4.25 1.15 -6.90 -1.45 -8.50 -1.95 -1.20 -7.45 -2.50 -10.75 -2.50 -4.15 -0.05 -4.50 -0.30 -4.50 -3.25 0 -3.65 -0.75 -5.55 -2.55 -6.25 -1.75 -0.75 -4.80 -0.35 -7.40 1 -3.45 1.75 -3.30 0.90 -3.35 19.45 0 14.35 -0.15 17.35 -0.90 20.55 -1.50 6.30 -1.10 8.15 1.95 8.80 1.75 0.35 3.85 -1.05 5 -3.30 1.70 -3.25 3.90 -14.50 4.90 -24.50 0.05 -0.95 0.40 -1.25 1.35 -1.25 0.85 0 1.20 0.25 1.05 0.75 -0.55 2.15 -0.65 21.50 -0.10 24.70 1.80 10.45 6.10 17.80 11.40 19.25 5 1.40 8.70 0.15 12.65 -4.35 l2.65 -3.05 1.35 2.10 c2.15 3.40 4.55 5.20 7.85 5.85 1.60 0.30 3.60 0.75 4.40 1 1.90 0.55 5.40 0.20 7.15 -0.70z m-276.55 -2.75 c5.30 -1.10 10.85 -3.60 14.25 -6.45 10.45 -8.75 15.65 -24.25 13.95 -41.50 -0.60 -6.30 -0.75 -7.10 -2.35 -13.85 -2.15 -9.20 -7.15 -18.45 -12.55 -23.25 -3.35 -2.95 -7.50 -4.75 -12.90 -5.45 -2.45 -0.35 -6.40 -1.20 -8.70 -1.90 -3.35 -1 -4.85 -1.25 -7.60 -1.05 -5.85 0.45 -11.05 3.80 -14.20 9.20 -0.70 1.20 -2.35 3.60 -3.65 5.35 -1.30 1.70 -3.30 5 -4.40 7.35 -11.95 24.85 -7.75 53.90 9.60 66.30 7.80 5.55 17.95 7.45 28.55 5.25z"/>
  <path d="M242.65 200.15 c-1.45 -2.20 -1.50 -9.65 -0.10 -15.05 1.50 -5.95 4.15 -12.10 7.05 -16.40 3.85 -5.75 3.90 -5.65 3.90 4.95 0 15.55 -1.30 22.65 -4.90 26.50 -1.80 1.90 -4.70 1.90 -5.95 0z"/>
  <path d="M134.50 144.40 c-1.30 -2.20 -1.70 -6 -1.35 -13.70 0.60 -12.40 3.85 -23.65 7.65 -26.65 1.60 -1.25 2.35 -1.30 4.25 -0.20 1.40 0.85 1.45 1 1.45 4.65 0 6.60 -2.20 19.70 -4.50 27.20 -2 6.35 -4.35 10.30 -6.10 10.30 -0.25 0 -0.85 -0.70 -1.40 -1.60z"/>
  <path d="M187.90 143.70 c-2.25 -5.15 -2.25 -22.55 0 -30.95 1.25 -4.70 3.95 -9.65 5.85 -10.80 3.05 -1.90 6.65 -0.65 7.65 2.70 1.20 3.80 1.20 6.25 0.10 7.75 -1.10 1.45 -1.45 3.40 -2.50 14.10 -1.10 10.55 -3.10 16.65 -6.15 18.50 -2.65 1.65 -3.75 1.35 -4.95 -1.30z"/>
  <path d="M239.35 142.20 c-1.05 -2.30 -1.10 -3.10 -1.10 -13.70 0 -7.90 0.20 -11.90 0.65 -13.50 0.40 -1.25 0.95 -3.15 1.25 -4.25 1.70 -6.20 5.40 -10.75 8.80 -10.75 3 0 4.45 2.20 4.90 7.45 0.20 2.70 0.05 4.05 -0.75 6.45 -0.65 1.75 -1.25 5.45 -1.55 8.95 -0.60 7.15 -1.85 12.05 -4.15 16.20 -1.80 3.30 -3.25 4.70 -5.55 5.25 -1.25 0.30 -1.45 0.10 -2.50 -2.10z"/>
  <path d="M104.25 97.20 c0.35 -16.75 1.40 -26.70 2.80 -26.70 0.75 0 0.55 19.25 -0.30 26.60 -0.85 7.40 -1.40 10.25 -2.20 11.05 -0.35 0.35 -0.45 -2.95 -0.30 -10.95z"/>
  <path d="M328.10 145.35 c-1.10 -1.30 -2.15 -6.75 -2.45 -12.40 -0.50 -10.35 1.15 -20.55 4.35 -26.95 1.75 -3.50 2.90 -4.50 5.45 -4.85 3.75 -0.50 5.85 2 6.10 7.35 0.10 2 -0.15 3.15 -0.75 4.15 -0.90 1.30 -1.15 3 -2.30 13.95 -0.70 6.85 -1.85 12.20 -3.30 15 -1.80 3.55 -5.65 5.55 -7.10 3.75z"/>
  <path d="M46.10 140.75 c-9.40 -2.65 -13.95 -10 -15.05 -24.50 -0.40 -5.55 0 -15.45 0.70 -16.15 0.15 -0.15 1.75 1.20 3.60 3.05 5.85 5.90 12.95 8.70 20.65 8.20 5.55 -0.35 9.20 -1.60 11.65 -3.95 2.20 -2.10 2.25 -2.25 0.50 -9.60 l-0.95 -4 -1.60 2.60 c-1 1.70 -2.25 2.90 -3.55 3.60 -5.55 2.80 -14 -0.65 -17.45 -7.20 -1.20 -2.30 -1.35 -3.05 -1.35 -8.05 0.05 -4.60 0.20 -5.80 1.10 -7.50 2 -3.80 4.45 -5.25 8.80 -5.25 3.45 0.05 6.10 1.30 9.20 4.45 10.10 10.25 13.30 38.90 6.10 54.30 -1.80 3.85 -5.20 7.55 -8.25 9.05 -3.55 1.70 -9.80 2.15 -14.10 0.95z"/>
 </g>
</svg>